ModelForces
version=1
nRows=4
nColumns=211
inDegrees=no

This file contains the forces exerted on a model during a simulation.

A force is a generalized force, meaning that it can be either a force (N) or a torque (Nm).

Units are S.I. units (second, meters, Newtons, ...)
Angles are in degrees.

endheader
time	glut_med1_r	glut_med2_r	glut_med3_r	glut_min1_r	glut_min2_r	glut_min3_r	semimem_r	semiten_r	bifemlh_r	bifemsh_r	sar_r	add_long_r	add_brev_r	add_mag1_r	add_mag2_r	add_mag3_r	tfl_r	pect_r	grac_r	glut_max1_r	glut_max2_r	glut_max3_r	iliacus_r	psoas_r	quad_fem_r	gem_r	peri_r	rect_fem_r	vas_med_r	vas_int_r	vas_lat_r	med_gas_r	lat_gas_r	soleus_r	tib_post_r	flex_dig_r	flex_hal_r	tib_ant_r	per_brev_r	per_long_r	per_tert_r	ext_dig_r	ext_hal_r	glut_med1_l	glut_med2_l	glut_med3_l	glut_min1_l	glut_min2_l	glut_min3_l	semimem_l	semiten_l	bifemlh_l	bifemsh_l	sar_l	add_long_l	add_brev_l	add_mag1_l	add_mag2_l	add_mag3_l	tfl_l	pect_l	grac_l	glut_max1_l	glut_max2_l	glut_max3_l	iliacus_l	psoas_l	quad_fem_l	gem_l	peri_l	rect_fem_l	vas_med_l	vas_int_l	vas_lat_l	med_gas_l	lat_gas_l	soleus_l	tib_post_l	flex_dig_l	flex_hal_l	tib_ant_l	per_brev_l	per_long_l	per_tert_l	ext_dig_l	ext_hal_l	ercspn_r	ercspn_l	intobl_r	intobl_l	extobl_r	extobl_l	femur_lat_meniscii_l.femur_lat_l.force.X	femur_lat_meniscii_l.femur_lat_l.force.Y	femur_lat_meniscii_l.femur_lat_l.force.Z	femur_lat_meniscii_l.femur_lat_l.torque.X	femur_lat_meniscii_l.femur_lat_l.torque.Y	femur_lat_meniscii_l.femur_lat_l.torque.Z	femur_lat_meniscii_l.meniscus_lat_l.force.X	femur_lat_meniscii_l.meniscus_lat_l.force.Y	femur_lat_meniscii_l.meniscus_lat_l.force.Z	femur_lat_meniscii_l.meniscus_lat_l.torque.X	femur_lat_meniscii_l.meniscus_lat_l.torque.Y	femur_lat_meniscii_l.meniscus_lat_l.torque.Z	femur_med_meniscii_l.femur_med_l.force.X	femur_med_meniscii_l.femur_med_l.force.Y	femur_med_meniscii_l.femur_med_l.force.Z	femur_med_meniscii_l.femur_med_l.torque.X	femur_med_meniscii_l.femur_med_l.torque.Y	femur_med_meniscii_l.femur_med_l.torque.Z	femur_med_meniscii_l.meniscus_med_l.force.X	femur_med_meniscii_l.meniscus_med_l.force.Y	femur_med_meniscii_l.meniscus_med_l.force.Z	femur_med_meniscii_l.meniscus_med_l.torque.X	femur_med_meniscii_l.meniscus_med_l.torque.Y	femur_med_meniscii_l.meniscus_med_l.torque.Z	femur_lat_meniscii_r.femur_lat_r.force.X	femur_lat_meniscii_r.femur_lat_r.force.Y	femur_lat_meniscii_r.femur_lat_r.force.Z	femur_lat_meniscii_r.femur_lat_r.torque.X	femur_lat_meniscii_r.femur_lat_r.torque.Y	femur_lat_meniscii_r.femur_lat_r.torque.Z	femur_lat_meniscii_r.meniscus_lat_r.force.X	femur_lat_meniscii_r.meniscus_lat_r.force.Y	femur_lat_meniscii_r.meniscus_lat_r.force.Z	femur_lat_meniscii_r.meniscus_lat_r.torque.X	femur_lat_meniscii_r.meniscus_lat_r.torque.Y	femur_lat_meniscii_r.meniscus_lat_r.torque.Z	femur_med_meniscii_r.femur_med_r.force.X	femur_med_meniscii_r.femur_med_r.force.Y	femur_med_meniscii_r.femur_med_r.force.Z	femur_med_meniscii_r.femur_med_r.torque.X	femur_med_meniscii_r.femur_med_r.torque.Y	femur_med_meniscii_r.femur_med_r.torque.Z	femur_med_meniscii_r.meniscus_med_r.force.X	femur_med_meniscii_r.meniscus_med_r.force.Y	femur_med_meniscii_r.meniscus_med_r.force.Z	femur_med_meniscii_r.meniscus_med_r.torque.X	femur_med_meniscii_r.meniscus_med_r.torque.Y	femur_med_meniscii_r.meniscus_med_r.torque.Z	femur_med_tibia_l.tibia_upper_l.force.X	femur_med_tibia_l.tibia_upper_l.force.Y	femur_med_tibia_l.tibia_upper_l.force.Z	femur_med_tibia_l.tibia_upper_l.torque.X	femur_med_tibia_l.tibia_upper_l.torque.Y	femur_med_tibia_l.tibia_upper_l.torque.Z	femur_med_tibia_l.femur_med_l.force.X	femur_med_tibia_l.femur_med_l.force.Y	femur_med_tibia_l.femur_med_l.force.Z	femur_med_tibia_l.femur_med_l.torque.X	femur_med_tibia_l.femur_med_l.torque.Y	femur_med_tibia_l.femur_med_l.torque.Z	femur_lat_tibia_l.tibia_upper_l.force.X	femur_lat_tibia_l.tibia_upper_l.force.Y	femur_lat_tibia_l.tibia_upper_l.force.Z	femur_lat_tibia_l.tibia_upper_l.torque.X	femur_lat_tibia_l.tibia_upper_l.torque.Y	femur_lat_tibia_l.tibia_upper_l.torque.Z	femur_lat_tibia_l.femur_lat_l.force.X	femur_lat_tibia_l.femur_lat_l.force.Y	femur_lat_tibia_l.femur_lat_l.force.Z	femur_lat_tibia_l.femur_lat_l.torque.X	femur_lat_tibia_l.femur_lat_l.torque.Y	femur_lat_tibia_l.femur_lat_l.torque.Z	femur_med_tibia_r.tibia_upper_r.force.X	femur_med_tibia_r.tibia_upper_r.force.Y	femur_med_tibia_r.tibia_upper_r.force.Z	femur_med_tibia_r.tibia_upper_r.torque.X	femur_med_tibia_r.tibia_upper_r.torque.Y	femur_med_tibia_r.tibia_upper_r.torque.Z	femur_med_tibia_r.femur_med_r.force.X	femur_med_tibia_r.femur_med_r.force.Y	femur_med_tibia_r.femur_med_r.force.Z	femur_med_tibia_r.femur_med_r.torque.X	femur_med_tibia_r.femur_med_r.torque.Y	femur_med_tibia_r.femur_med_r.torque.Z	femur_lat_tibia_r.tibia_upper_r.force.X	femur_lat_tibia_r.tibia_upper_r.force.Y	femur_lat_tibia_r.tibia_upper_r.force.Z	femur_lat_tibia_r.tibia_upper_r.torque.X	femur_lat_tibia_r.tibia_upper_r.torque.Y	femur_lat_tibia_r.tibia_upper_r.torque.Z	femur_lat_tibia_r.femur_lat_r.force.X	femur_lat_tibia_r.femur_lat_r.force.Y	femur_lat_tibia_r.femur_lat_r.force.Z	femur_lat_tibia_r.femur_lat_r.torque.X	femur_lat_tibia_r.femur_lat_r.torque.Y	femur_lat_tibia_r.femur_lat_r.torque.Z	aACL_R	pACL_R	aPCL_R	pPCL_R	aMCL_R	aLCL_R	aPCL_L	pPCL_L	aMCL_L	aLCL_L	ground_prescribedForce_fx	ground_prescribedForce_fy	ground_prescribedForce_fz	ground_prescribedForce_px	ground_prescribedForce_py	ground_prescribedForce_pz	ground_prescribedForce_fx	ground_prescribedForce_fy	ground_prescribedForce_fz	ground_prescribedForce_px	ground_prescribedForce_py	ground_prescribedForce_pz
      0.22418219	      9.33644846	      6.89145370	      7.39474299	      3.20738807	      3.77402054	      3.94741526	     11.57679932	      5.00856961	     11.40058528	      9.21944527	      1.81710807	      6.84339851	      4.98663441	      3.54575324	      2.99459580	      4.96551905	      5.01313978	      2.70382365	      1.86800744	      4.44731058	      6.76225998	      5.06565656	     24.87846074	     15.49001907	      4.39277215	      3.21730880	      5.42044984	     14.67039218	      8.67318548	      9.28012486	     12.32114822	      4.45625517	      2.19083078	      8.41090650	      8.73431010	      2.55774935	      2.18928905	     16.08165053	      5.01694953	      9.36226524	      6.23534423	      7.30513493	      2.64291289	      9.33644846	      6.89145370	      7.39474299	      3.20738807	      3.77402054	      3.94741526	     11.29593517	      5.04092812	      9.82508488	      8.74157434	      1.83163137	      6.84339851	      4.98663441	      3.54575324	      2.99459580	      4.96551905	      4.70289815	      2.70382365	      1.88474283	      4.44731058	      6.76225998	      5.06565656	     24.87846074	     15.49001907	      4.39277215	      3.21730880	      5.42044984	     13.59063990	      8.05805792	      9.27836802	      9.96842998	     19.16998015	      8.90441427	     41.20788474	     46.47315029	      3.81745676	      3.90872231	     10.66484021	      5.62525038	     15.31539625	      2.39625986	      6.97571809	      2.19274167	     30.17757409	     30.17757409	     11.04213119	     11.04213119	     28.64077778	     28.64077778	      2.76307435	     50.99597937	     -9.56042239	      5.21997485	     -0.02578839	      1.48581788	     -2.76307435	    -50.99597937	      9.56042239	     -1.74637766	      0.02558040	     -0.48301696	     -3.31599387	     20.97615968	     -3.40468921	      0.94473225	     -0.02138609	     -1.00501789	      3.31599387	    -20.97615968	      3.40468921	      0.28075727	      0.00368718	     -0.29758878	     29.73441442	     59.92861436	     15.11347709	     -7.71983043	      0.70198689	     12.39844777	    -29.73441442	    -59.92861436	    -15.11347709	      2.11406329	     -0.82801888	     -0.86985479	     67.38588954	    115.31754715	     11.37797809	     -2.17982423	     -1.52385929	     28.47837222	    -67.38588954	   -115.31754715	    -11.37797809	     -1.77151783	      1.25661589	     -2.36806062	      0.00000000	      0.00000000	      0.00000000	      0.00000000	      0.00000000	      0.00000000	      0.00000000	      0.00000000	      0.00000000	      0.00000000	      0.00000000	      0.00000000	      0.00000000	      0.00000000	      0.00000000	      0.00000000	      0.00000000	      0.00000000	      0.00000000	      0.00000000	      0.00000000	      0.00000000	      0.00000000	      0.00000000	      0.00000000	      0.00000000	      0.00000000	      0.00000000	      0.00000000	      0.00000000	      0.00000000	      0.00000000	      0.00000000	      0.00000000	      0.00000000	      0.00000000	      0.00000000	      0.00000000	      0.00000000	      0.00000000	      0.00000000	      0.00000000	      0.00000000	      0.00000000	      0.00000000	      0.00000000	      0.00000000	      0.00000000	     34.19160680	     47.60561868	      0.25002890	      4.06641945	      0.17627960	      7.98273027	      0.00000000	      0.00000000	      0.00000001	      0.00000000	     67.00000000	      0.00000000	      0.00000000	      0.00000000	     -0.05000000	     -0.10000000	     67.00000000	      0.00000000	      0.00000000	      0.00000000	     -0.05000000	      0.10000000
      0.22534612	      9.30937299	      6.87297506	      7.37466874	      3.19915072	      3.76505715	      3.93599427	     11.52819800	      4.99328930	     11.34202803	      9.18116379	      1.81292170	      6.82483205	      4.97394554	      3.53630214	      2.98642245	      4.95070252	      5.00205304	      2.69683243	      1.86347752	      4.43536678	      6.74404977	      5.05177907	     24.84469924	     15.45166557	      4.38124235	      3.21178416	      5.40123757	     14.60354072	      8.63737155	      9.23466011	     12.25267003	      4.44225393	      2.17884124	      8.38838470	      8.63128699	      2.57172426	      2.16876935	     16.02414402	      5.05514592	      9.39739643	      7.28895336	      7.22805764	      2.64048786	      9.30937299	      6.87297506	      7.37466874	      3.19915072	      3.76505715	      3.93599427	     11.25800130	      5.02643524	      9.79300487	      8.71860995	      1.82694911	      6.82483205	      4.97394554	      3.53630214	      2.98642245	      4.95070252	      4.69371596	      2.69683243	      1.87983997	      4.43536678	      6.74404977	      5.05177907	     24.84469924	     15.45166557	      4.38124235	      3.21178416	      5.40123757	     13.54676686	      8.03587169	      9.25235617	      9.94056614	     19.09845832	      8.87114712	     41.06147678	     46.41207509	      3.80189000	      3.89418947	     10.63146320	      5.60613055	     15.27428057	      2.39033817	      6.94982931	      2.18471786	     30.09989420	     30.09989420	     11.01126265	     11.01126265	     28.61297675	     28.61297675	      2.76307435	     50.99597937	     -9.56042239	      5.21997485	     -0.02578839	      1.48581788	     -2.76307435	    -50.99597937	      9.56042239	     -1.74637766	      0.02558040	     -0.48301696	     -3.31599387	     20.97615968	     -3.40468921	      0.94473225	     -0.02138609	     -1.00501789	      3.31599387	    -20.97615968	      3.40468921	      0.28075727	      0.00368718	     -0.29758878	     29.85267897	     59.95108319	     15.10828315	     -7.71724304	      0.70427624	     12.44912289	    -29.85267897	    -59.95108319	    -15.10828315	      2.11311068	     -0.83058556	     -0.87462813	     67.31936298	    115.30795442	     11.48422648	     -2.22305677	     -1.52361243	     28.45177526	    -67.31936298	   -115.30795442	    -11.48422648	     -1.77018318	      1.25698340	     -2.36670821	      0.00000000	      0.00000000	      0.00000000	      0.00000000	      0.00000000	      0.00000000	      0.00000000	      0.00000000	      0.00000000	      0.00000000	      0.00000000	      0.00000000	      0.00000000	      0.00000000	      0.00000000	      0.00000000	      0.00000000	      0.00000000	      0.00000000	      0.00000000	      0.00000000	      0.00000000	      0.00000000	      0.00000000	      0.00000000	      0.00000000	      0.00000000	      0.00000000	      0.00000000	      0.00000000	      0.00000000	      0.00000000	      0.00000000	      0.00000000	      0.00000000	      0.00000000	      0.00000000	      0.00000000	      0.00000000	      0.00000000	      0.00000000	      0.00000000	      0.00000000	      0.00000000	      0.00000000	      0.00000000	      0.00000000	      0.00000000	     34.32970879	     47.81073591	      0.25810574	      4.07352662	      0.23157975	      8.00824075	      0.00000000	      0.00000000	      0.00000001	      0.00000000	     67.00000000	      0.00000000	      0.00000000	      0.00000000	     -0.05000000	     -0.10000000	     67.00000000	      0.00000000	      0.00000000	      0.00000000	     -0.05000000	      0.10000000
      0.22901649	      9.22667659	      6.81652492	      7.31334793	      3.17398249	      3.73767390	      3.90111070	     11.38742986	      4.95014175	     11.16618867	      9.08218111	      1.80097355	      6.76811717	      4.93518232	      3.50743044	      2.96145710	      4.90544915	      4.96983315	      2.67547186	      1.85110267	      4.39888271	      6.68842417	      5.00939069	     24.74158578	     15.33455011	      4.34601692	      3.19491588	      5.34244564	     14.40573945	      8.54010666	      9.10811459	     12.05569190	      4.40914340	      2.14792221	      8.33836555	      8.32118419	      2.60648341	      2.09780214	     15.85127729	      5.17095835	      9.51206437	      8.73608285	      7.01722140	      2.64286183	      9.22667659	      6.81652492	      7.31334793	      3.17398249	      3.73767390	      3.90111070	     11.14203415	      4.98216916	      9.69496515	      8.64845083	      1.81264341	      6.76811717	      4.93518232	      3.50743044	      2.96145710	      4.90544915	      4.66567145	      2.67547186	      1.86486032	      4.39888271	      6.68842417	      5.00939069	     24.74158578	     15.33455011	      4.34601692	      3.19491588	      5.34244564	     13.41270035	      7.96811196	      9.17291690	      9.85547524	     18.87928570	      8.76920598	     40.61347670	     46.22540963	      3.75433152	      3.84981303	     10.52949551	      5.54767319	     15.14847338	      2.37225411	      6.87052654	      2.16015242	     29.86255200	     29.86255200	     10.91697576	     10.91697576	     28.52807092	     28.52807092	      2.76307435	     50.99597937	     -9.56042239	      5.21997485	     -0.02578839	      1.48581788	     -2.76307435	    -50.99597937	      9.56042239	     -1.74637766	      0.02558040	     -0.48301696	     -3.31599387	     20.97615968	     -3.40468921	      0.94473225	     -0.02138609	     -1.00501789	      3.31599387	    -20.97615968	      3.40468921	      0.28075727	      0.00368718	     -0.29758878	     29.72177862	     59.71617244	     15.10199422	     -7.70648797	      0.70081741	     12.39672955	    -29.72177862	    -59.71617244	    -15.10199422	      2.10253487	     -0.82611348	     -0.87231413	     66.86033935	    114.70112580	     11.48516054	     -2.23066186	     -1.51631737	     28.26246126	    -66.86033935	   -114.70112580	    -11.48516054	     -1.76772967	      1.25275075	     -2.35379407	      0.00000000	      0.00000000	      0.00000000	      0.00000000	      0.00000000	      0.00000000	      0.00000000	      0.00000000	      0.00000000	      0.00000000	      0.00000000	      0.00000000	      0.00000000	      0.00000000	      0.00000000	      0.00000000	      0.00000000	      0.00000000	      0.00000000	      0.00000000	      0.00000000	      0.00000000	      0.00000000	      0.00000000	      0.00000000	      0.00000000	      0.00000000	      0.00000000	      0.00000000	      0.00000000	      0.00000000	      0.00000000	      0.00000000	      0.00000000	      0.00000000	      0.00000000	      0.00000000	      0.00000000	      0.00000000	      0.00000000	      0.00000000	      0.00000000	      0.00000000	      0.00000000	      0.00000000	      0.00000000	      0.00000000	      0.00000000	     34.70171101	     48.37506127	      0.29913893	      4.13707037	      0.28003810	      8.05809697	      0.00000000	      0.00000000	      0.00000001	      0.00000000	     67.00000000	      0.00000000	      0.00000000	      0.00000000	     -0.05000000	     -0.10000000	     67.00000000	      0.00000000	      0.00000000	      0.00000000	     -0.05000000	      0.10000000
      0.23193215	      9.16378987	      6.77358579	      7.26670781	      3.15483173	      3.71684339	      3.87458281	     11.27574068	      4.91438945	     11.02974584	      8.99824743	      1.78828008	      6.72498031	      4.90567546	      3.48546932	      2.94247044	      4.87103680	      4.94472000	      2.65922004	      1.83850380	      4.37113380	      6.64611687	      4.97715366	     24.66317633	     15.24551708	      4.31921905	      3.18209398	      5.29762059	     14.25004176	      8.44647693	      8.99552166	     11.88724160	      4.38624870	      2.12792457	      8.31846739	      8.11195796	      2.62656325	      2.03760036	     15.72787525	      5.24787807	      9.59050755	      0.00000000	      6.88720161	      2.65524287	      9.16378987	      6.77358579	      7.26670781	      3.15483173	      3.71684339	      3.87458281	     11.05373786	      4.94850628	      9.62035125	      8.59507794	      1.80175691	      6.72498031	      4.90567546	      3.48546932	      2.94247044	      4.87103680	      4.64434552	      2.65922004	      1.85346374	      4.37113380	      6.64611687	      4.97715366	     24.66317633	     15.24551708	      4.31921905	      3.18209398	      5.29762059	     13.31068230	      7.91658717	      9.11251548	      9.79078093	     18.71185599	      8.69133465	     40.27193343	     46.08332851	      3.71814553	      3.81607265	     10.45192902	      5.50315733	     15.05256319	      2.35850455	      6.80998815	      2.14141398	     29.68196162	     29.68196162	     10.84526932	     10.84526932	     28.46351022	     28.46351022	      2.76307435	     50.99597937	     -9.56042239	      5.21997485	     -0.02578839	      1.48581788	     -2.76307435	    -50.99597937	      9.56042239	     -1.74637766	      0.02558040	     -0.48301696	     -3.31599387	     20.97615968	     -3.40468921	      0.94473225	     -0.02138609	     -1.00501789	      3.31599387	    -20.97615968	      3.40468921	      0.28075727	      0.00368718	     -0.29758878	     29.52891391	     59.63984489	     15.09479201	     -7.70005557	      0.69513827	     12.31688136	    -29.52891391	    -59.63984489	    -15.09479201	      2.09755917	     -0.81929173	     -0.86656613	     66.50310181	    114.44808398	     11.74516798	     -2.34124425	     -1.51156214	     28.11523479	    -66.50310181	   -114.44808398	    -11.74516798	     -1.76040095	      1.25015728	     -2.34383559	      0.00000000	      0.00000000	      0.00000000	      0.00000000	      0.00000000	      0.00000000	      0.00000000	      0.00000000	      0.00000000	      0.00000000	      0.00000000	      0.00000000	      0.00000000	      0.00000000	      0.00000000	      0.00000000	      0.00000000	      0.00000000	      0.00000000	      0.00000000	      0.00000000	      0.00000000	      0.00000000	      0.00000000	      0.00000000	      0.00000000	      0.00000000	      0.00000000	      0.00000000	      0.00000000	      0.00000000	      0.00000000	      0.00000000	      0.00000000	      0.00000000	      0.00000000	      0.00000000	      0.00000000	      0.00000000	      0.00000000	      0.00000000	      0.00000000	      0.00000000	      0.00000000	      0.00000000	      0.00000000	      0.00000000	      0.00000000	     34.88144281	     48.67628291	      0.32024764	      4.15063747	      0.19635924	      8.03043685	      0.00000000	      0.00000000	      0.00000001	      0.00000000	     67.00000000	      0.00000000	      0.00000000	      0.00000000	     -0.05000000	     -0.10000000	     67.00000000	      0.00000000	      0.00000000	      0.00000000	     -0.05000000	      0.10000000
